<?xml version="1.0" encoding="utf-8"?>
<svg width="48" height="48" viewBox="0 0 48 48" fill="none" xmlns="http://www.w3.org/2000/svg">
  <g transform="translate(0 0)">
    <path d="M27.3061 34C29.6463 34 31.4867 31.9998 31.2923 29.6678C31.2923 29.6678 29.9589 13.6678 29.9589 13.6678C29.7861 11.5946 28.0531 10 25.9727 10C25.9727 10 23.6533 10 23.6533 10M23.6528 10L15.6528 10M23.6528 10C23.6528 10 23.6528 8 23.6528 8C23.6528 5.87826 22.81 3.84344 21.3096 2.34314C19.8094 0.84286 17.7746 0 15.6528 0C13.531 0 11.4963 0.84286 9.99597 2.34314C8.49569 3.84344 7.65283 5.87826 7.65283 8C7.65283 8 7.65283 10 7.65283 10M23.6533 10L23.6533 18M7.65307 10C7.65307 10 5.33361 10 5.33361 10C3.25325 10 1.52019 11.5946 1.34743 13.6678C1.34743 13.6678 0.0140934 29.6678 0.0140934 29.6678C-0.180246 31.9998 1.66011 34 4.00027 34C4.00027 34 17.6531 34 17.6531 34M7.65283 10L7.65283 18" fill="none" stroke-width="5" stroke="#FFFFFF" stroke-linecap="round" stroke-linejoin="round" transform="translate(8.347 6)" />
  </g>
</svg>